<svg version="1.1" xmlns="http://www.w3.org/2000/svg"
xmlns:xlink="http://www.w3.org/1999/xlink">
	  	<g id="croos_icon" style="enable-background:new 0 0 612 612;fill: #90949c;">
			<polygon points="612,36.004 576.521,0.603 306,270.608 35.478,0.603 0,36.004 270.522,306.011 0,575.997 35.478,611.397      306,341.411 576.521,611.397 612,575.997 341.459,306.011    "/>
		</g>

		<g id="googleplus_icon" style="enable-background:new 0 0 512 512;background:#fff;padding: 4px;">
		<path style="fill:#FBBB00;" d="M113.47,309.408L95.648,375.94l-65.139,1.378C11.042,341.211,0,299.9,0,256
			c0-42.451,10.324-82.483,28.624-117.732h0.014l57.992,10.632l25.404,57.644c-5.317,15.501-8.215,32.141-8.215,49.456
			C103.821,274.792,107.225,292.797,113.47,309.408z"></path>
		<path style="fill:#518EF8;" d="M507.527,208.176C510.467,223.662,512,239.655,512,256c0,18.328-1.927,36.206-5.598,53.451
			c-12.462,58.683-45.025,109.925-90.134,146.187l-0.014-0.014l-73.044-3.727l-10.338-64.535
			c29.932-17.554,53.324-45.025,65.646-77.911h-136.89V208.176h138.887L507.527,208.176L507.527,208.176z"></path>
		<path style="fill:#28B446;" d="M416.253,455.624l0.014,0.014C372.396,490.901,316.666,512,256,512
			c-97.491,0-182.252-54.491-225.491-134.681l82.961-67.91c21.619,57.698,77.278,98.771,142.53,98.771
			c28.047,0,54.323-7.582,76.87-20.818L416.253,455.624z"></path>
		<path style="fill:#F14336;" d="M419.404,58.936l-82.933,67.896c-23.335-14.586-50.919-23.012-80.471-23.012
			c-66.729,0-123.429,42.957-143.965,102.724l-83.397-68.276h-0.014C71.23,56.123,157.06,0,256,0
			C318.115,0,375.068,22.126,419.404,58.936z"></path>
		</g>

  	  	<g id="facebooklogin_icon" style="enable-background:new 0 0 533.333 533.333;">
  	  	  <path fill="#FFFFFF" d="
          M204.1 0H11.9C5.3 0 0 5.3 0 11.9v192.2c0 6.6 5.3 11.9 11.9
          11.9h103.5v-83.6H87.2V99.8h28.1v-24c0-27.9 17-43.1 41.9-43.1
          11.9 0 22.2.9 25.2 1.3v29.2h-17.3c-13.5 0-16.2 6.4-16.2
          15.9v20.8h32.3l-4.2 32.6h-28V216h55c6.6 0 11.9-5.3
          11.9-11.9V11.9C216 5.3 210.7 0 204.1 0z">
          </path>
        </g>

	  <g id="hotcontent_icon" style="enable-background:new 0 0 533.333 533.333;">
		<path d="M165.494,533.333c-35.545-73.962-16.616-116.343,10.703-156.272c29.917-43.728,37.627-87.013,37.627-87.013   s23.518,30.573,14.11,78.39c41.548-46.25,49.389-119.938,43.115-148.159c93.914,65.63,134.051,207.737,79.96,313.054   c287.695-162.776,71.562-406.339,33.934-433.775c12.543,27.435,14.922,73.88-10.416,96.42C331.635,33.333,225.583,0,225.583,0   c12.543,83.877-45.466,175.596-101.404,244.13c-1.965-33.446-4.053-56.525-21.641-88.531   C98.59,216.357,52.157,265.884,39.583,326.76C22.551,409.2,52.341,469.562,165.494,533.333z"/>
	  </g>
       <g id="trending_icon">
       	 <path d="m160 443.945312h-130v38h130zm254.945312-414.117187c-8.21875-.746094-14.277343-8.011719-13.535156-16.230469.746094-8.21875 8.011719-14.28125 16.230469-13.535156l80.363281 7.28125c9.683594.878906 16.132813 10.777344 12.71875 20.0625l-27.832031 75.742188c-2.847656 7.746093-11.433594 11.71875-19.179687 8.871093-7.75-2.847656-11.722657-11.433593-8.875-19.179687l13.691406-37.257813-446.140625 253.386719c-7.183594 4.078125-16.3125 1.558594-20.390625-5.625s-1.558594-16.3125 5.625-20.390625l440.402344-250.128906zm67.054688 183.117187h-132v269h132zm-147-30h162c8.285156 0 15 6.714844 15 15v299c0 8.28125-6.714844 15-15 15h-482c-8.285156 0-15-6.71875-15-15v-68c0-8.285156 6.714844-15 15-15h145v-78c0-8.285156 6.714844-15 15-15h145v-123c0-8.285156 6.714844-15 15-15zm-15 299v-131h-130v131zm0 0" fill-rule="evenodd"/>
       </g>
	<g id="fresh_icon" style="enable-background:new 0 0 47.001 47.001;">
		<path d="M46.907,20.12c-0.163-0.347-0.511-0.569-0.896-0.569h-2.927C41.223,9.452,32.355,1.775,21.726,1.775
			C9.747,1.775,0,11.522,0,23.501C0,35.48,9.746,45.226,21.726,45.226c7.731,0,14.941-4.161,18.816-10.857
			c0.546-0.945,0.224-2.152-0.722-2.699c-0.944-0.547-2.152-0.225-2.697,0.72c-3.172,5.481-9.072,8.887-15.397,8.887
			c-9.801,0-17.776-7.974-17.776-17.774c0-9.802,7.975-17.776,17.776-17.776c8.442,0,15.515,5.921,17.317,13.825h-2.904
			c-0.385,0-0.732,0.222-0.896,0.569c-0.163,0.347-0.11,0.756,0.136,1.051l4.938,5.925c0.188,0.225,0.465,0.355,0.759,0.355
			c0.293,0,0.571-0.131,0.758-0.355l4.938-5.925C47.018,20.876,47.07,20.467,46.907,20.12z"/>
		<path d="M21.726,6.713c-1.091,0-1.975,0.884-1.975,1.975v11.984c-0.893,0.626-1.481,1.658-1.481,2.83
			c0,1.906,1.551,3.457,3.457,3.457c0.522,0,1.014-0.125,1.458-0.334l6.87,3.965c0.312,0.181,0.65,0.266,0.986,0.266
			c0.682,0,1.346-0.354,1.712-0.988c0.545-0.943,0.222-2.152-0.724-2.697l-6.877-3.971c-0.092-1.044-0.635-1.956-1.449-2.526V8.688
			C23.701,7.598,22.816,6.713,21.726,6.713z M21.726,24.982c-0.817,0-1.481-0.665-1.481-1.48c0-0.816,0.665-1.481,1.481-1.481
			s1.481,0.665,1.481,1.481C23.207,24.317,22.542,24.982,21.726,24.982z"/>
	</g>
	<g id="postage_icon" style="fill: #90949c;enable-background:new 0 0 510 510;">
		<path style="fill-opacity:0.9;" d="M255,0C114.75,0,0,114.75,0,255s114.75,255,255,255s255-114.75,255-255S395.25,0,255,0z     M255,459c-112.2,0-204-91.8-204-204S142.8,51,255,51s204,91.8,204,204S367.2,459,255,459z"/>
		<polygon style="fill-opacity:0.9;" points="267.75,127.5 229.5,127.5 229.5,280.5 362.1,362.1 382.5,328.95 267.75,260.1   "/>
	</g>

	<g id="upvotepost_icon" style="fill: #a3dea6; enable-background:new 0 0 490.4 490.4;">
		<path d="M245.2,490.4c135.2,0,245.2-110,245.2-245.2S380.4,0,245.2,0S0,110,0,245.2S110,490.4,245.2,490.4z M245.2,24.5    c121.7,0,220.7,99,220.7,220.7s-99,220.7-220.7,220.7s-220.7-99-220.7-220.7S123.5,24.5,245.2,24.5z"/>
		<path d="M185,216.2l48-48v183.4c0,6.8,5.5,12.3,12.3,12.3c6.8,0,12.3-5.5,12.3-12.3V168.3l48,48c2.4,2.4,5.5,3.6,8.7,3.6    s6.3-1.2,8.7-3.6c4.8-4.8,4.8-12.5,0-17.3l-68.9-68.9c-4.8-4.8-12.5-4.8-17.3,0L167.9,199c-4.8,4.8-4.8,12.5,0,17.3    C172.4,221,180.2,221,185,216.2z"/>
	</g>

	<g id="upvotepost_icon" style="fill: #a3dea6; enable-background:new 0 0 490.4 490.4;">
		<path d="M245.2,490.4c135.2,0,245.2-110,245.2-245.2S380.4,0,245.2,0S0,110,0,245.2S110,490.4,245.2,490.4z M245.2,24.5    c121.7,0,220.7,99,220.7,220.7s-99,220.7-220.7,220.7s-220.7-99-220.7-220.7S123.5,24.5,245.2,24.5z"/>
		<path d="M185,216.2l48-48v183.4c0,6.8,5.5,12.3,12.3,12.3c6.8,0,12.3-5.5,12.3-12.3V168.3l48,48c2.4,2.4,5.5,3.6,8.7,3.6    s6.3-1.2,8.7-3.6c4.8-4.8,4.8-12.5,0-17.3l-68.9-68.9c-4.8-4.8-12.5-4.8-17.3,0L167.9,199c-4.8,4.8-4.8,12.5,0,17.3    C172.4,221,180.2,221,185,216.2z"/>
	</g>

	<g id="downvotepost_icon" style="fill:#fb9797 enable-background:new 0 0 612.074 612.074;">
		<path d="M306.037,0C136.997,0,0,136.997,0,306.037s136.997,306.037,306.037,306.037s306.037-136.997,306.037-306.037   S475.077,0,306.037,0z M306.037,582.405c-152.203,0-276.368-124.165-276.368-276.368S153.834,29.669,306.037,29.669   s276.368,124.165,276.368,276.368S458.24,582.405,306.037,582.405z M425.381,315.68c5.637,5.637,5.637,15.205,0,20.843   l-108.96,109.702c-0.816,0.816-1.632,1.632-2.374,1.632l-0.816,0.816c-0.816,0-0.816,0.816-1.632,0.816   c-0.816,0-0.816,0-1.632,0.816c-0.816,0-0.816,0-1.632,0c-0.816,0-1.632,0-3.189,0c-0.816,0-1.632,0-3.189,0   c-0.816,0-0.816,0-1.632,0c-0.816,0-0.816,0-1.632-0.816c-0.816,0-0.816-0.816-1.632-0.816c0,0-0.816,0-0.816-0.816   c-0.816-0.816-1.632-0.816-2.374-1.632L185.877,335.706c-5.637-5.637-5.637-15.205,0-20.843s15.205-5.637,20.843,0l84.928,84.928   V165.035c0-8.011,6.379-14.39,14.39-14.39s14.39,6.379,14.39,14.39v234.683l83.37-83.296   C410.176,310.042,419.818,310.042,425.381,315.68z"/>
	</g>


    <g id="postcomment_icon" style="&#10;fill: #90949c;&#10;">
 		<path d="m456.832031 80.335938h-65.332031v-25.167969c0-30.421875-24.746094-55.167969-55.164062-55.167969h-281.171876c-30.417968 0-55.164062 24.746094-55.164062 55.167969v241c0 30.417969 24.746094 55.167969 55.164062 55.167969h25.171876v65.332031c0 6.066406 3.652343 11.535156 9.257812 13.855469 1.855469.769531 3.804688 1.144531 5.738281 1.144531 3.902344 0 7.738281-1.523438 10.609375-4.394531l22.421875-22.421876c9.65625 16.050782 27.242188 26.816407 47.300781 26.816407h154.457032l75.9375 75.9375c2.871094 2.871093 6.707031 4.394531 10.609375 4.394531 1.933593 0 3.882812-.371094 5.738281-1.140625 5.605469-2.324219 9.257812-7.792969 9.257812-13.859375v-65.332031h25.167969c30.421875 0 55.167969-24.75 55.167969-55.167969v-241c0-30.417969-24.746094-55.164062-55.167969-55.164062zm-361.496093 241h-40.171876c-13.875 0-25.164062-11.292969-25.164062-25.167969v-241c0-13.878907 11.289062-25.167969 25.164062-25.167969h281.171876c13.875 0 25.164062 11.289062 25.164062 25.167969v241c0 13.875-11.289062 25.167969-25.164062 25.167969h-160.671876c-3.976562 0-7.792968 1.578124-10.605468 4.390624l-40.15625 40.160157c-.007813.003906-.011719.007812-.015625.011719l-14.550781 14.554687v-44.121094c0-8.28125-6.71875-14.996093-15-14.996093zm386.664062 55.164062c0 13.878906-11.289062 25.167969-25.167969 25.167969h-40.167969c-8.28125 0-15 6.714843-15 15v44.117187l-54.722656-54.722656c-2.8125-2.816406-6.628906-4.394531-10.605468-4.394531h-160.671876c-11.957031 0-21.984374-8.386719-24.53125-19.585938l30.746094-30.746093h154.457032c30.417968 0 55.164062-24.746094 55.164062-55.167969v-185.832031h65.332031c13.878907 0 25.167969 11.285156 25.167969 25.164062zm0 0"/><path d="m195.75 214.765625c21.558594 0 39.101562-17.539063 39.101562-39.097656 0-21.5625-17.542968-39.101563-39.101562-39.101563s-39.101562 17.539063-39.101562 39.101563c0 21.558593 17.542968 39.097656 39.101562 39.097656zm0-48.199219c5.019531 0 9.101562 4.082032 9.101562 9.101563 0 5.015625-4.082031 9.097656-9.101562 9.097656s-9.101562-4.082031-9.101562-9.097656c.003906-5.019531 4.085937-9.101563 9.101562-9.101563zm0 0"/><path d="m276.085938 214.765625c21.558593 0 39.097656-17.539063 39.097656-39.097656 0-21.5625-17.539063-39.101563-39.097656-39.101563-21.5625 0-39.105469 17.539063-39.105469 39.101563 0 21.558593 17.542969 39.097656 39.105469 39.097656zm0-48.199219c5.015624 0 9.097656 4.082032 9.097656 9.101563 0 5.015625-4.082032 9.097656-9.097656 9.097656-5.019532 0-9.105469-4.082031-9.105469-9.097656.003906-5.019531 4.085937-9.101563 9.105469-9.101563zm0 0"/><path d="m154.515625 175.667969c0-21.5625-17.539063-39.101563-39.101563-39.101563-21.558593 0-39.097656 17.539063-39.097656 39.101563 0 21.558593 17.539063 39.097656 39.097656 39.097656 21.5625 0 39.101563-17.539063 39.101563-39.097656zm-48.199219 0c0-5.019531 4.082032-9.101563 9.101563-9.101563 5.015625 0 9.097656 4.082032 9.097656 9.101563 0 5.015625-4.082031 9.097656-9.097656 9.097656-5.019531 0-9.101563-4.082031-9.101563-9.097656zm0 0"/>
    </g>

	<g id="postshare_icon" style="enable-background:new 0 0 481.6 481.6;fill:#90949c;">
		<path d="M381.6,309.4c-27.7,0-52.4,13.2-68.2,33.6l-132.3-73.9c3.1-8.9,4.8-18.5,4.8-28.4c0-10-1.7-19.5-4.9-28.5l132.2-73.8
			c15.7,20.5,40.5,33.8,68.3,33.8c47.4,0,86.1-38.6,86.1-86.1S429,0,381.5,0s-86.1,38.6-86.1,86.1c0,10,1.7,19.6,4.9,28.5
			l-132.1,73.8c-15.7-20.6-40.5-33.8-68.3-33.8c-47.4,0-86.1,38.6-86.1,86.1s38.7,86.1,86.2,86.1c27.8,0,52.6-13.3,68.4-33.9
			l132.2,73.9c-3.2,9-5,18.7-5,28.7c0,47.4,38.6,86.1,86.1,86.1s86.1-38.6,86.1-86.1S429.1,309.4,381.6,309.4z M381.6,27.1
			c32.6,0,59.1,26.5,59.1,59.1s-26.5,59.1-59.1,59.1s-59.1-26.5-59.1-59.1S349.1,27.1,381.6,27.1z M100,299.8
			c-32.6,0-59.1-26.5-59.1-59.1s26.5-59.1,59.1-59.1s59.1,26.5,59.1,59.1S132.5,299.8,100,299.8z M381.6,454.5
			c-32.6,0-59.1-26.5-59.1-59.1c0-32.6,26.5-59.1,59.1-59.1s59.1,26.5,59.1,59.1C440.7,428,414.2,454.5,381.6,454.5z"/>
	</g>

	<g id="commentage_icon" style="fill: #90949c;enable-background:new 0 0 510 510;">
		<path style="fill-opacity:0.9;" d="M255,0C114.75,0,0,114.75,0,255s114.75,255,255,255s255-114.75,255-255S395.25,0,255,0z     M255,459c-112.2,0-204-91.8-204-204S142.8,51,255,51s204,91.8,204,204S367.2,459,255,459z"/>
		<polygon style="fill-opacity:0.9;" points="267.75,127.5 229.5,127.5 229.5,280.5 362.1,362.1 382.5,328.95 267.75,260.1   "/>
	</g>

	<g id="uploadincomment_icon" style="enable-background:new 0 0 490 490;fill: #90949c;">
			<path d="M0,167.85v216.2c0,33,26.8,59.8,59.8,59.8h370.4c33,0,59.8-26.8,59.8-59.8v-216.2c0-31.4-25.5-56.9-56.9-56.9h-79.6    l-1.9-8.3c-7.7-33.3-37-56.5-71.2-56.5h-70.9c-34.1,0-63.4,23.2-71.2,56.5l-1.9,8.3H56.9C25.5,110.95,0,136.55,0,167.85z     M146.2,135.45c5.7,0,10.6-3.9,11.9-9.5l4.1-17.8c5.2-22.1,24.6-37.5,47.3-37.5h70.9c22.7,0,42.1,15.4,47.3,37.5l4.1,17.8    c1.3,5.5,6.2,9.5,11.9,9.5H433c17.9,0,32.4,14.5,32.4,32.4v216.2c0,19.5-15.8,35.3-35.3,35.3H59.8c-19.5,0-35.3-15.8-35.3-35.3    v-216.2c0-17.9,14.5-32.4,32.4-32.4H146.2z"/>
			<circle cx="82.9" cy="187.75" r="16.4"/>
			<path d="M245,380.95c56.7,0,102.9-46.2,102.9-102.9s-46.2-102.9-102.9-102.9s-102.9,46.1-102.9,102.9S188.3,380.95,245,380.95z     M245,199.65c43.2,0,78.4,35.2,78.4,78.4s-35.2,78.4-78.4,78.4s-78.4-35.2-78.4-78.4S201.8,199.65,245,199.65z"/>
	</g>

	<g id="upvotecomment_icon" style="fill: #a3dea6;enable-background:new 0 0 490.4 490.4;">
		<path d="M245.2,490.4c135.2,0,245.2-110,245.2-245.2S380.4,0,245.2,0S0,110,0,245.2S110,490.4,245.2,490.4z M245.2,24.5    c121.7,0,220.7,99,220.7,220.7s-99,220.7-220.7,220.7s-220.7-99-220.7-220.7S123.5,24.5,245.2,24.5z"/>
		<path d="M185,216.2l48-48v183.4c0,6.8,5.5,12.3,12.3,12.3c6.8,0,12.3-5.5,12.3-12.3V168.3l48,48c2.4,2.4,5.5,3.6,8.7,3.6    s6.3-1.2,8.7-3.6c4.8-4.8,4.8-12.5,0-17.3l-68.9-68.9c-4.8-4.8-12.5-4.8-17.3,0L167.9,199c-4.8,4.8-4.8,12.5,0,17.3    C172.4,221,180.2,221,185,216.2z"/>
    </g>

	<g id="upvotecomment_icon" style="fill:#fb9797;enable-background:new 0 0 490.4 490.4;">
		<path d="M490.4,245.2C490.4,110,380.4,0,245.2,0S0,110,0,245.2s110,245.2,245.2,245.2S490.4,380.4,490.4,245.2z M24.5,245.2
			c0-121.7,99-220.7,220.7-220.7s220.7,99,220.7,220.7s-99,220.7-220.7,220.7S24.5,366.9,24.5,245.2z"/>
		<path d="M253.9,360.4l68.9-68.9c4.8-4.8,4.8-12.5,0-17.3s-12.5-4.8-17.3,0l-48,48V138.7c0-6.8-5.5-12.3-12.3-12.3
			s-12.3,5.5-12.3,12.3v183.4l-48-48c-4.8-4.8-12.5-4.8-17.3,0s-4.8,12.5,0,17.3l68.9,68.9c2.4,2.4,5.5,3.6,8.7,3.6
			S251.5,362.8,253.9,360.4z"/>
	</g>

		<g id="uploadimage_icon" style="enable-background:new 0 0 315.58 315.58;">
			<path d="M310.58,33.331H5c-2.761,0-5,2.238-5,5v238.918c0,2.762,2.239,5,5,5h305.58c2.763,0,5-2.238,5-5V38.331   C315.58,35.569,313.343,33.331,310.58,33.331z M285.58,242.386l-68.766-71.214c-0.76-0.785-2.003-0.836-2.823-0.114l-47.695,41.979   l-60.962-75.061c-0.396-0.49-0.975-0.77-1.63-0.756c-0.631,0.013-1.22,0.316-1.597,0.822L30,234.797V63.331h255.58V242.386z"/>
			<path d="M210.059,135.555c13.538,0,24.529-10.982,24.529-24.531c0-13.545-10.991-24.533-24.529-24.533   c-13.549,0-24.528,10.988-24.528,24.533C185.531,124.572,196.511,135.555,210.059,135.555z"/>
		</g>

       <g id="uploadvideo_icon" style="enable-background:new 0 0 60 60;">
		 <path d="M30,0C13.458,0,0,13.458,0,30s13.458,30,30,30s30-13.458,30-30S46.542,0,30,0z M45.563,30.826l-22,15
			C23.394,45.941,23.197,46,23,46c-0.16,0-0.321-0.038-0.467-0.116C22.205,45.711,22,45.371,22,45V15c0-0.371,0.205-0.711,0.533-0.884
			c0.328-0.174,0.724-0.15,1.031,0.058l22,15C45.836,29.36,46,29.669,46,30S45.836,30.64,45.563,30.826z"/>
	   </g>
      







<g id="memeface_icon" enable-background="new 0 0 1200 1200">
	<path fill="#FFFCF8" d="M1099.765,638.729c3.857-21.297,9.494-46.061,22.053-68.23c20.51-36.207,27.828-71.81,22.365-108.833
		c-2.697-18.329-5.932-34.576-18.148-47.827c-7.297-7.906-15.406-15.171-23.248-22.211l-3.166-2.842
		c-20.463-18.399-31.84-35.553-36.879-55.605c-0.662-2.637-1.291-5.282-1.924-7.934c-2.213-9.333-4.512-18.99-8.271-28.028
		c-14.074-33.802-40.627-58.553-81.186-75.658c-5.953-2.511-12.09-4.558-18.02-6.534c-9.633-3.208-18.727-6.239-27.406-11.155
		c-42.221-23.896-88.285-33.471-131.789-40.255c-30.047-4.688-60.938-8.359-91.824-10.923c-28.657-2.377-60.135-3.953-96.234-4.808
		c-5.584-0.13-11.372-0.193-17.699-0.193c-12.727,0-25.65,0.264-38.152,0.524c-8.105,0.169-16.208,0.338-24.311,0.436
		c-3.154,0.039-6.313,0.057-9.474,0.063c-7.396,0.035-15.041,0.074-22.591,0.436l-8.57,0.404
		c-25.563,1.21-51.994,2.462-77.969,4.301l-4.529,0.316c-17.108,1.196-34.801,2.43-51.85,5.982
		c-37.649,7.846-70.717,26.723-98.287,56.115c-18.262,19.468-33.085,43.122-46.631,74.427
		c-21.61,49.958-55.855,90.217-101.794,119.658C70.562,431.95,53.679,462.58,54.075,501.39c0.152,15.002,1.375,28.281,3.753,40.625
		c6.084,31.58,19.658,55.549,41.504,73.26c2.128,1.723,4.343,3.369,6.481,4.951c4.287,3.165,8.33,6.168,11.686,9.755
		c28.622,30.645,48.948,62.104,62.146,96.188c0.925,2.405,1.836,4.817,2.74,7.23c4.746,12.646,9.656,25.721,18.093,37.312
		c14.829,20.376,32.153,38.381,51.495,53.503c3.555,2.792,7.104,5.592,10.654,8.391c18.846,14.861,38.34,30.229,58.996,43.164
		c60.248,37.74,125.377,69.426,199.096,96.855c96.382,35.855,194.49,59.832,291.582,71.275c22.957,2.701,46.477,4.614,67.221,6.303
		c9.133,0.745,17.936-0.261,26.252,0.485c0.115,0.014,0.238-1.688,0.359-1.688c0.09,0,0.193,0,0.287,0l18.348,0.379
		c11.559-0.83,21.469-0.703,31.385-1.435c25.271-1.864,48.102-6.242,69.797-14.273c42.318-15.664,68.152-41.798,78.988-80.319
		c8.045-28.576,8.357-58.831,0.963-90.136c-1.34-5.669-2.762-11.293-4.189-16.963c-5.646-22.499-11.492-45.736-11.797-69.361
		c-0.057-3.974-0.121-7.936-0.184-11.916c-0.316-19.688-0.646-40.021,0.711-59.82
		C1091.979,682.853,1095.894,660.118,1099.765,638.729z"/>
	<path fill="#131313" d="M543.624,529.354c-2.598,0-4.617,1.526-6.09,2.638c-0.404,0.31-0.803,0.612-1.211,0.865
		c-1.877,1.146-3.73,2.342-5.598,3.531c-5.268,3.369-10.248,6.548-15.6,8.925c-7.188,3.207-15.104,4.769-24.199,4.769
		c-3.633,0-7.398-0.239-11.51-0.745c-0.281-0.035-0.566-0.057-0.852-0.057c-2.602,0-4.785,1.385-6.717,2.596
		c-0.699,0.436-1.367,0.857-1.93,1.132c-1.291,0.619-2.156,1.885-2.269,3.313c-0.116,1.429,0.534,2.807,1.712,3.63
		c0.595,0.408,1.164,0.886,1.738,1.363c1.701,1.394,3.621,2.977,6.16,3.63c3.151,0.802,6.303,0.95,9.077,1.097
		c0.988,0.043,1.931-3.523,2.806-3.453c0.123,0.015,0.24-3.587,0.355-3.587h0.092c22.07,0,40.558-3.501,56.52-16.654
		c5.67-4.67,6.742-7.456,3.176-11.845C547.307,528.061,545.116,529.354,543.624,529.354z M586.007,536.444
		c5.877-3.496,12.249-6.07,18.998-8.778c3.84-1.554,7.807-3.151,11.654-4.93c2.254-1.048,3.671-2.982,4.807-4.537
		c0.373-0.506,0.735-1.013,1.133-1.463c0.879-0.992,1.217-2.356,0.9-3.65c-0.324-1.273-1.252-2.335-2.497-2.799
		c-0.461-0.176-1.097-0.499-1.713-0.823c-1.618-0.851-3.46-1.808-5.5-1.808c-0.707,0-1.396,0.12-2.04,0.345
		c-1.789,0.654-3.59,1.294-5.395,1.934c-8.953,3.186-18.22,6.478-26.73,11.148c-14.51,7.976-21.816,20.741-21.124,36.792
		c0.187,19.124,6.802,28.653,22.109,31.833c2.124,0.449,4.386,0.654,6.917,0.654c3.731,0,7.463-0.457,11.067-0.914
		c1.178-0.148,2.345-0.296,3.513-0.423c3.042-0.337,4.459-3.122,5.493-5.162c0.268-0.534,0.524-1.062,0.806-1.484
		c0.629-0.949,0.826-2.138,0.534-3.249c-0.296-1.111-1.052-2.047-2.078-2.567c-0.503-0.253-1.003-0.569-1.498-0.894
		c-1.604-1.013-3.598-2.265-6.052-2.355c-2.606-0.092-5.184,0.161-7.643,0.422c-1.986,0.203-3.861,0.394-5.711,0.394
		c-6.182,0-9.436-2.687-10.891-8.975C572.243,552.931,576.337,542.205,586.007,536.444z M691.831,236.374
		c-47.777-9.84-89.869-14.334-136.316-14.566c-20.871-0.879-49.571,3.151-77.469,10.79c-40.459,11.063-79.779,30.482-116.869,57.715
		c-8.901,6.534-17.465,13.715-25.742,20.678c-3.377,2.827-6.746,5.655-10.149,8.454c-1.569,1.28-4.487,3.678-4.39,7.244
		c0.039,1.435,0.609,3.545,3.105,5.38c1.098,0.816,2.477,1.217,4.087,1.217c1.407,0,2.835-0.31,4.093-0.569
		c0.518-0.113,1.023-0.225,1.492-0.295c1.891-0.289,3.055-1.59,3.674-2.279c0.092-0.099,0.173-0.204,0.258-0.282
		c17.617-16.169,37.258-30.89,58.361-43.754c52.68-32.114,108.012-48.403,164.472-48.403c1.86,0,3.728,0.021,5.599,0.056
		c14.313,0.268,26.111,0.942,37.143,2.131c19.74,2.124,40.049,4.726,62.076,7.955c6.447,0.942,13.02,2.244,19.377,3.51
		c10.836,2.152,22.043,4.375,33.303,4.973c10.449,0.569,21.843,0.83,34.848,0.83c12.083,0,24.355-0.225,36.225-0.443l10.378-0.197
		c8.644-0.148,17.292-1.351,25.657-2.518c1.822-0.253,3.647-0.506,5.465-0.752c4.375-0.584,8.764-1.351,13.002-2.089
		c6.23-1.09,12.674-2.215,18.969-2.729c27.633-2.258,54.217,1.343,79.059,10.705c0.756,0.289,1.574,0.436,2.439,0.436
		c1.734,0,3.355-0.577,4.779-1.076c0.672-0.232,1.291-0.457,1.779-0.563c1.27-0.281,2.324-1.167,2.834-2.363
		c0.504-1.203,0.402-2.574-0.291-3.686c-0.254-0.415-0.531-1.027-0.834-1.674c-0.959-2.075-2.152-4.663-4.85-5.69
		c-19.932-7.646-38.926-11.809-58.066-12.724c-2.244-0.112-4.582-0.162-6.932-0.162c-14.4,0-28.748,2.04-42.625,4.016l-4.617,0.654
		c-22.426,3.158-45.18,4.339-66.561,5.289C739.981,242.858,715.114,241.157,691.831,236.374z M623.925,398.274
		c-3.419-5.001-7.034-9.08-10.758-12.146c-37.214-30.609-77.712-45.499-123.801-45.499c-0.922,0-1.85,0-2.779,0.014
		c-1.498-0.056-3.014-0.091-4.547-0.091c-17.548,0-38.205,3.84-63.145,11.746c-18.133,5.732-36.891,13.159-51.242,28.471
		c-7.532,8.046-10.054,16.374-7.494,24.764c3.395,11.134,13.413,14.665,20.654,16.353c3.906,0.915,7.855,1.357,12.068,1.357
		c9.344,0,18.41-2.272,26.822-4.705c18.012-5.24,37.248-10.424,56.84-11.057c2.24-0.077,4.467-0.112,6.689-0.112
		c37.055,0,70.344,10.339,98.947,30.729c5.645,4.03,10.912,5.992,16.1,5.992c5.359,0,10.609-2.046,16.525-6.436
		c0.323-0.239,0.668-0.45,1.016-0.668c0.507-0.316,1.006-0.64,1.488-0.992C630.599,426.197,633.131,411.743,623.925,398.274z
		 M378.211,403.971c-1.171-0.352-2.009-1.006-2.483-1.955c-0.611-1.224-0.607-2.898,0.012-4.586
		c1.512-4.072,4.209-7.012,7.986-9.896c0.302,6.73,2.524,12.913,6.766,18.863C386.2,405.779,382.125,405.132,378.211,403.971z
		 M609.358,420.71c-1.604,1.597-3.5,3.018-5.613,4.6c-2.184,1.632-3.971,2.384-5.63,2.384c-1.649,0-3.545-0.752-5.771-2.3
		c-21.445-14.897-44.373-24.814-68.186-29.477c7.051-9.411,10.182-20.326,9.83-34.231c1.213,0.422,2.419,0.83,3.611,1.238
		c6.299,2.145,12.244,4.164,17.98,6.52c20.587,8.44,36.964,19.011,50.057,32.283c1.973,2.005,3.801,4.382,5.278,6.886
		C613.659,413.234,613.191,416.85,609.358,420.71z M983.366,454.126c-13.67,1.562-25.805,7.8-37.102,19.082
		c-11.918,11.915-22.656,15.234-34.168,10.592c-4.188-1.695-8.049-4.516-12.135-7.491c-2.525-1.85-5.139-3.756-7.895-5.422
		c-1.678-1.013-3.508-1.132-4.734-1.132c-0.576,0-1.168,1.098-1.758,1.126c-0.447,0.028-0.895,1.12-1.322,1.12h-0.352
		c-1.15,0-2.258-0.697-3.066,0.118c-0.811,0.816-1.229,1.403-1.162,2.543c0.025,0.422-0.014,0.627-0.045,1.105
		c-0.115,1.913-0.273,4.414,1.631,6.362c12.672,12.885,25.455,19.267,40.246,20.23c0.088,0.014,0.176-0.02,0.26-0.02
		c0.221,0,0.436-0.028,0.654-0.063l1.73-0.281c1.389-0.218,2.914-0.471,4.434-0.746c13.047-2.384,22.609-10.627,30.547-18.181
		c11.492-10.93,25.656-15.199,43.568-13.131c14.357,1.66,27.732,6.9,41.307,12.569c0.889,0.373,1.873,0.555,2.928,0.555
		c1.623,0,3.191-0.436,4.576-0.815c0.729-0.204,1.414-0.394,1.963-0.472c1.35-0.218,2.504-1.111,3.049-2.363
		c0.555-1.252,0.436-2.694-0.324-3.848c-0.326-0.492-0.611-1.076-0.906-1.646c-0.982-1.92-2.203-4.297-4.664-5.486
		c-6.355-3.053-13.363-5.972-21.43-8.918C1014.56,454.168,999.022,452.347,983.366,454.126z M787.429,445.602
		c11.918-4.318,24.243-8.799,36.552-12.217c24.032-6.661,47.45-7.723,69.731-3.151c6.496,1.329,14.078,2.75,21.785,2.75
		c6.281,0,11.943-0.928,17.311-2.849c9.125-3.256,14.848-8.539,17.492-16.142c4.939-14.235,3.115-27.627-5.283-38.718
		c-13.742-18.153-34.367-21.923-50.805-23.175c-20.51-1.562-42,2.581-66.328,12.843c-25.869,10.909-52.057,26.459-80.074,47.552
		c-1.748,1.315-2.416,1.315-2.635,1.315c-0.541,0-1.343-0.302-2.384-0.907c-3.703-2.159-7.673-3.636-11.51-5.071l-2.343-0.886
		c-1.6-0.612-3.506-1.245-5.51-1.245c-3.602,0-6.313,2.046-7.441,5.62c-0.707,2.229-0.592,4.227,0.334,5.971
		c1.498,2.799,4.452,3.657,6.607,4.283c0.338,0.105,0.683,0.197,1.014,0.31c16.588,5.395,26.29,15.6,29.662,31.179
		c1.014,4.684,1.245,9.565,1.495,14.728c0.06,1.301,0.12,2.602,0.196,3.896c1.832,31.474,16.923,49.353,46.133,54.635
		c11.284,2.04,18.898,10.445,17.713,19.524c-1.072,8.236-3.714,16.036-7.431,21.958c-9.875,15.72-26.959,22.563-42.369,27.184
		c-5.806,1.744-10.729,2.589-15.048,2.589c-7.835,0-14.057-2.708-19.553-8.511c-1.846-1.947-4.529-1.947-5.542-1.947
		c-0.56,0-1.146,0.021-1.733,0.056c-0.609,0.028-1.228,0.07-1.773,0.028c-1.178-0.084-2.334,0.352-3.16,1.195
		c-0.827,0.844-1.249,2.012-1.144,3.18c0.042,0.479,0.024,0.991,0.007,1.512c-0.045,1.828-0.112,4.332,1.445,6.358
		c7.012,9.149,16.849,14.2,27.708,14.2c0.404,0,0.813-0.008,1.22-0.021c26.516-0.9,49.575-10.972,68.529-29.927
		c8.127-8.13,13.178-18.567,14.612-30.194c3.021-24.56-7.648-38.831-32.635-43.627c-16.099-3.087-26.737-13.919-29.171-29.709
		c-1.048-6.801-1.578-13.624-2.138-20.84c-0.187-2.433-0.376-4.881-0.587-7.343c0.748-0.429,1.469-0.802,2.158-1.041
		C777.519,449.203,782.477,447.402,787.429,445.602z M857.712,371.66c4.139-0.999,8.051-1.934,11.865-2.469
		c6.668-0.942,12.568-1.393,18.037-1.393c11.453,0,21.432,2.026,30.496,6.21c13.744,6.33,19.342,15.776,18.143,30.645
		c-0.568,7.04-7.127,11.858-15.758,11.485c-7.205-0.316-14.598-1.224-21.736-2.11c-4.758-0.583-9.672-1.188-14.555-1.625
		c-5.961-0.535-11.828-0.781-18.045-1.048c-0.738-0.035-1.484-0.056-2.227-0.091c6.953-16.269,0.838-29.674-6.492-39.542
		C857.528,371.702,857.616,371.674,857.712,371.66z M1066.378,529.073c-1.646,1.372-3.451,2.595-5.354,3.896
		c-2.119,1.442-4.318,2.94-6.371,4.691c-1.865,1.583-2.398,3.903-2.793,5.584c-0.102,0.472-0.203,0.943-0.352,1.379
		c-0.383,1.098-0.268,2.307,0.309,3.313c0.582,1.014,1.568,1.73,2.719,1.955c0.465,0.092,0.947,0.246,1.436,0.395
		c1.213,0.387,2.584,0.809,4.078,0.809c0.852,0,1.66-0.141,2.398-0.415c2.885-1.083,5.346-2.933,7.52-4.564l1.055-0.802
		c13.553-9.987,27.441-23.773,27.709-50.268c0.006-0.267-0.018-0.527-0.064-0.781c-0.26-1.385-0.51-3.003-0.795-4.817
		c-0.752-4.811-1.688-10.79-3.334-16.676c-8.137-28.949-24.486-45.914-49.979-51.836c-1.555-0.358-3.203-0.717-4.859-0.717
		c-4.041,0-6.932,2.237-7.934,6.147c-1.809,7.012,4.609,9.002,7.021,9.748c0.391,0.126,0.785,0.246,1.176,0.373
		c5.961,2.075,12.129,4.213,17.178,7.526c15.654,10.262,20.865,26.86,24.16,43.248
		C1084.724,504.267,1079.843,517.939,1066.378,529.073z M927.95,289.651c-25.957-17.035-56.576-25.313-96.355-26.03
		c-15.668-0.303-31.594,0.992-46.948,2.215l-1.171,0.091c-8.985,0.725-17.914,2.49-26.541,4.192l-1.867,0.38
		c-2.7,0.528-4.167,2.828-5.236,4.495c-0.291,0.45-0.559,0.9-0.857,1.252c-0.732,0.9-1.045,2.054-0.865,3.193
		c0.18,1.146,0.834,2.152,1.804,2.764c0.433,0.281,0.848,0.584,1.273,0.879c1.263,0.893,2.693,1.906,4.459,2.539
		c1.589,0.57,3.598,0.38,5.099,0.113c0.307-0.056,0.609-0.113,0.904-0.148c15.878-1.85,31.756-3.699,47.725-5.563l13.705-1.604
		c5.074,0.64,10.142,1.196,15.205,1.772c11.158,1.224,22.703,2.497,33.773,4.656c33.846,6.611,60.266,23.892,78.531,51.364
		c0.51,0.767,0.967,1.569,1.424,2.371c1.004,1.751,2.041,3.559,3.553,5.205c1.512,1.653,3.502,2.244,5.1,2.722
		c0.445,0.134,0.889,0.26,1.305,0.429c0.48,0.19,0.994,0.295,1.508,0.295c0.539,0,1.072-0.105,1.58-0.324
		c0.984-0.422,1.762-1.217,2.162-2.208c0.201-0.506,0.426-0.999,0.65-1.484c0.646-1.456,1.379-3.095,1.721-4.965
		c0.404-2.293-0.775-4.157-1.559-5.395c-0.127-0.19-0.25-0.38-0.355-0.57C957.501,314.62,944.134,300.265,927.95,289.651z
		 M891.075,588h0.127c0.221,0,0.439,0.917,0.66,0.875c0.664-0.099,1.414,0.283,2.227,0.191c2.5-0.288,5.615-0.404,8.609-1.572
		c2.545-0.991,4.1-3.088,5.352-4.854c0.4-0.563,0.787-1.048,1.209-1.541c0.873-1.006,1.197-2.346,0.859-3.641
		c-0.334-1.279-1.281-2.298-2.525-2.755c-0.518-0.189-1.16-0.495-1.84-0.839c-1.705-0.845-3.637-1.817-5.809-1.817
		c-0.557,0-1.111,0.077-1.637,0.204c-10.926,2.723-20.648,0.042-30.338-8.343c-1.346-1.167-2.613-2.489-3.955-3.889
		c-1.773-1.857-3.605-3.771-5.758-5.451c-1.674-1.301-3.629-1.471-5.145-1.471c-0.457,0-0.932,0.015-1.406,0.035
		c-0.523,0.021-1.059,0.057-1.551,0.021c-1.084-0.092-2.148,0.289-2.961,0.999c-0.813,0.718-1.299,1.737-1.352,2.82
		c-0.023,0.422-0.119,0.886-0.199,1.351c-0.334,1.941-0.791,3.655,1.012,5.765C857.351,576.61,870.13,588,891.075,588z
		 M763.47,371.365c0.108,0.007,0.221,0.014,0.33,0.014c1.16,0,2.275-0.506,3.042-1.393c0.349-0.401,0.763-0.781,1.178-1.167
		c1.368-1.287,3.073-2.891,3.686-5.268c0.774-2.996,1.312-6.035,1.836-8.975c0.749-4.171,1.448-8.117,2.739-11.795
		c3.102-8.876,6.903-17.738,10.574-26.319c0.975-2.279,1.952-4.558,2.916-6.843c0.64-1.505,2.584-6.105,0.246-9.854
		c-0.967-1.554-3.018-3.46-7.294-3.685c-0.964-0.049-2.061,0.337-2.831,0.949c-0.112,0.091-0.253,0.183-0.414,0.289
		c-0.992,0.689-2.656,1.829-3.662,3.678c-8.481,15.607-18.336,36.602-19.235,60.768c-0.099,2.687,1.505,4.719,2.788,6.344
		c0.355,0.457,0.721,0.9,1.003,1.35C761.039,370.549,762.196,371.252,763.47,371.365z M988.155,860.231
		c-1.002-0.865-2.348-1.189-3.635-0.865c-0.553,0.141-1.172,0.211-1.787,0.295c-2.152,0.289-4.824,0.647-6.682,2.701
		c-10.6,11.725-24.199,21.642-41.578,30.307c-28.92,14.426-61.871,22.084-106.85,24.842c-10.639,0.654-21.892,0.957-35.428,0.957
		c-11.024,0-22.26-0.211-33.127-0.408l-9.889-0.176c-28.396-0.472-58.362-3.819-97.176-10.811
		c-43.016-7.758-87.069-20.264-130.939-37.172c-50.289-19.376-99.606-44.31-150.76-76.205c-0.271-0.176-0.557-0.359-0.841-0.549
		c-1.782-1.16-3.999-2.609-6.626-2.609c-1.674,0-4.785,0.625-6.762,4.888c-1.977,4.249,3.056,10.044,5.645,11.584l8.77,5.247
		c16.012,9.559,32.564,22.228,49.287,31.243C536.331,906.352,658.806,941,783.81,941h2.895c27.827,0,60.676-4.674,93.328-11.256
		c23.932-4.826,51.635-13.266,75.658-29.084c9.203-6.063,17.523-14.194,25.572-21.396c2.006-1.787,4.01-3.939,6.021-5.704
		c2.299-2.02,2.246-5.259,2.211-7.728c-0.014-0.718-0.023-1.546,0.029-2.06C989.661,862.473,989.147,861.089,988.155,860.231z
		 M1045.228,875.009c-0.238-1.252-1.068-2.308-2.223-2.855c-1.148-0.549-2.492-0.514-3.625,0.091
		c-0.514,0.274-1.104,0.499-1.691,0.731c-1.959,0.787-4.402,1.772-5.813,4.072c-1.604,2.616-2.891,5.353-4.137,8.012
		c-1.314,2.785-2.553,5.436-4.09,7.82c-12.313,19.088-30.471,32.867-57.146,43.367c-45.064,17.738-92.471,21.354-132.895,22.549
		c-10.83,0.316-21.613,0.479-32.051,0.479c-44.081,0-84.54-2.764-123.695-8.461c-34.326-5-65.551-11.415-95.474-19.58
		c-73.203-20.018-144.008-51.646-210.444-94.016c-15.041-9.594-29.924-20.066-44.32-30.188c-6.264-4.416-12.53-8.818-18.832-13.173
		c-0.271-0.196-0.545-0.394-0.82-0.591c-1.627-1.195-3.649-2.687-6.294-2.687c-1.632,0-4.017,0.598-6.116,3.439
		c-3.137,4.213-2.19,8.257,2.817,12.006c0.316,0.231,0.622,0.457,0.911,0.696c2.131,1.786,4.385,3.391,6.559,4.951
		c0.96,0.676,1.92,1.365,2.865,2.054c67.207,49.508,134.77,86.44,206.545,112.913c64.556,23.801,133.363,38.973,204.502,45.077
		c18.785,1.618,37.916,2.187,56.414,2.75c8.377,0.246,17.042-2.674,25.538-2.309c0.053,0,0.108-3.158,0.165-3.158h0.028
		c47.587,0,83.837-0.076,117.544-6.379c22.82-4.275,52.469-9.688,79.344-25.962c24.275-14.7,39.773-31.881,47.381-54.17
		c0.83-2.434,0.094-4.38-0.492-6.251C1045.509,875.689,1045.329,875.528,1045.228,875.009z M742.031,897.888l11.637,1.104
		c0.127,0.015,0.257,0.029,0.384,0.029c0.13,0,0.253-0.015,0.379-0.029c4.041-0.372,8.086-0.744,12.129-1.117
		c12.783-1.175,25.996-2.398,38.986-3.904c3.721-0.422,9.545-4.367,9.643-8.729c0.063-2.82-1.02-4.536-1.947-5.479
		c-2.094-2.152-4.952-2.152-5.888-2.152c-1.034,0-2.019,0.119-2.891,0.211l-0.626,0.063c-2.816,0.288-5.631,0.696-8.346,1.097
		c-4.459,0.654-8.675,1.281-12.892,1.357c-19.313,0.388-38.124,0.388-56.065,0.015c-4.491-0.091-8.951-0.689-13.666-1.308
		c-3.289-0.443-6.686-0.894-10.094-1.161c-3.141-0.246-6.453,1.772-8.154,3.784c-0.595,0.711-1.273,1.941-1.111,3.883
		c0.15,1.842,1.097,4.479,2.81,5.922c2.166,1.821,5.124,2.454,7.224,2.666C716.331,895.44,729.129,896.657,742.031,897.888z
		 M434.759,786.684c54.709,32.677,119.265,52.349,197.355,60.177c22.278,2.236,45.991,4.544,69.377,6.127l0.303,0.021
		c27.307,1.843,55.542,3.763,83.387,4.255c4.744,0.078,9.484,0.127,14.229,0.127c36.067,0,68.16-2.596,98.098-7.934
		c29.713-5.303,53.045-13.096,73.418-24.518c26.871-15.059,43.008-36.131,47.953-62.625c3.256-17.443,5.346-36.32,6.572-59.411
		c2.395-45.098-0.414-84.077-8.588-119.159c-4.17-17.893-9.537-35.764-14.734-53.045c-1.383-4.607-2.764-9.214-4.129-13.821
		c-0.809-2.743-3.105-4.417-4.951-5.767c-0.633-0.458-1.225-0.894-1.656-1.287c-0.936-0.851-2.219-1.231-3.471-0.992
		c-1.246,0.232-2.311,1.048-2.871,2.18c-0.318,0.661-0.699,1.301-1.068,1.948c-1.006,1.766-2.158,3.763-2.615,6.126
		c-0.5,2.539-0.715,5.057-0.926,7.498c-0.229,2.595-0.436,5.043-0.961,7.371c-5.453,24.181-18.43,44.633-38.57,60.81
		c-18.375,14.742-41.109,24.926-67.559,30.25c-22.008,4.424-45.318,7.955-71.266,10.797c-11.326,1.238-21.338,1.843-30.611,1.843
		c-5.923,0-11.651-0.253-17.025-0.753c-36.003-3.348-65.424-7.146-92.59-11.963c-41.616-7.371-78.721-15.164-113.441-23.815
		c-59.49-14.813-116.397-34.007-169.147-57.04c-26.167-11.423-52.366-24.055-77.697-36.286
		c-12.203-5.873-24.824-11.957-37.291-17.843c-0.475-0.232-0.767-0.394-0.933-0.514c0.032-0.211,0.106-0.591,0.296-1.161
		c1.386-4.241,2.19-9.199,2.392-14.742c0.095-2.659-1.418-4.727-2.631-6.386c-0.344-0.464-0.692-0.928-0.963-1.399
		c-0.609-1.063-1.671-1.787-2.877-1.962c-1.21-0.19-2.434,0.176-3.338,1.006c-0.393,0.358-0.848,0.696-1.301,1.041
		c-1.52,1.14-3.4,2.561-4.287,4.875c-0.83,2.159-1.041,4.381-1.22,6.344c-0.108,1.125-0.208,2.194-0.408,3.137
		c-4.958,23.125-16.88,37.326-36.425,43.438c-3.795,1.182-7.727,1.935-11.887,2.736c-2.94,0.563-5.989,1.16-9,1.906
		c-2.188,0.556-3.607,2.068-4.754,3.278c-0.303,0.331-0.611,0.661-0.932,0.949c-0.816,0.696-1.315,1.709-1.383,2.785
		c-0.066,1.076,0.296,2.131,1.02,2.94c0.349,0.387,0.676,0.795,1.006,1.196c1,1.217,2.135,2.603,3.68,3.707
		c0.949,0.682,2.109,1.02,3.449,1.02c1.156,0,2.297-0.26,3.299-0.492c7.723-1.737,15.428-3.502,23.516-5.374l4.575-1.055
		c0.76,1.568,1.61,3.348,2.451,5.134c30.307,64.411,64.745,117.154,105.3,161.247C363.097,736.396,397.355,764.353,434.759,786.684z
		 M760.392,786.93c-2.595,13.349-4.87,26.586-7.271,40.597c-0.753,4.389-1.516,8.82-2.297,13.32l-87.066-6.547
		c0.592-2.539,1.186-5.043,1.77-7.512c2.166-9.144,4.213-17.773,5.701-26.65c1.396-8.334,2.063-17.512,2.084-28.885
		c0.008-3.63,1.172-3.953,2.402-4.298c1.365-0.387,2.732-0.767,4.101-1.167c6.868-1.956,13.965-3.981,20.928-4.84
		c15.231-1.871,31.161,0.113,47.274,5.887c3.479,1.252,7.104,3.524,10.199,6.408C761.637,776.45,761.608,780.69,760.392,786.93z
		 M899.915,831.816c-0.193,0.358-0.604,0.745-0.84,0.907c-13.125,1.998-26.529,3.904-39.488,5.739l-3.813,0.542
		c0.559-1.625,1.119-3.222,1.678-4.805c2.791-7.989,5.436-15.543,7.799-23.244c3.891-12.688,3.486-23.844-1.236-34.098
		c0.182-0.592,0.674-1.59,1.16-2.117c5.416-5.895,12.928-7.512,22.189-9.003c3.926-0.626,8.377-0.942,13.613-0.942
		c1.652,0,3.313,0.027,4.963,0.084c6.121,0.169,10.387,1.709,12.678,4.586c2.313,2.904,2.865,7.49,1.635,13.623
		C916.81,800.258,908.665,815.935,899.915,831.816z M967.7,782.921c-1.414,7.363-3.824,14.791-6.15,21.965
		c-0.689,2.131-1.377,4.256-2.045,6.394c-0.299,0.935-0.879,1.856-1.195,2.146c-11.615,4.621-23.52,9.143-35.029,13.496
		l-2.934,1.111c0.148-0.295,0.293-0.604,0.434-0.9c2.527-5.316,5.148-10.81,7.275-16.472l1.07-2.835
		c5.092-13.412,10.352-27.281,5.615-43.016c0.186-0.457,0.627-1.153,0.971-1.455c7.504-6.556,16.996-9.742,29.016-9.742
		c1.33,0,2.723,0.043,4.133,0.113c0.426,0.387,1.01,1.139,1.209,1.596C969.749,764.501,969.409,773.995,967.7,782.921z
		 M1007.347,728.933c-0.611,5.451-1.229,10.908-1.885,16.367c-1.633,13.609-4.66,29.174-14.834,41.439
		c-2.961,3.573-6.277,7.006-9.594,10.34c1.691-7.393,3.418-15.01,4.811-22.612c1.063-5.747,1.352-11.739,0.838-17.345
		c-0.875-9.607,2.564-17.154,10.525-23.068c3.221-2.406,6.668-4.474,10.311-6.661L1007.347,728.933z M984.259,567.89
		c10.771,19.068,18.137,38.965,22.434,60.593c1.01,5.058,2.1,10.923,2.307,16.642c0.422,11.534-2.898,16.633-13.676,21.001
		c-4.525,1.836-10.16,4.114-15.393,4.114c-2.32,0-4.467-0.422-6.545-1.309c-1.877-0.787-4.01-2.848-4.564-4.416
		c-4.836-13.589-9.467-27.535-13.939-41.025c-1.551-4.685-3.105-9.369-4.668-14.046c-0.102-0.302-0.207-0.591-0.322-0.894
		C963.642,598.063,974.944,584.707,984.259,567.89z M897.718,635.052c10.213-4.065,20.137-8.349,30.645-12.885
		c2.648-1.146,5.313-2.293,8.008-3.453c0.707,1.694,1.424,3.396,2.137,5.099c6.574,15.642,13.361,31.812,15.229,49.212
		c0.818,7.674-1.08,12.182-6.355,15.045c-2.254,1.238-4.484,2.49-6.723,3.77c-5.73,3.229-11.648,6.569-17.658,9.129
		c-1.227,0.521-2.408,0.781-3.502,0.781c-3.469,0-5.346-2.603-6.307-4.79c-2.07-4.685-3.299-9.776-4.605-15.163
		c-0.338-1.414-0.684-2.828-1.039-4.234c-1.979-7.786-3.896-15.594-5.809-23.4c-1.471-5.999-2.939-11.998-4.441-17.984
		c-0.096-0.379-0.15-0.654-0.189-0.857C897.257,635.256,897.458,635.157,897.718,635.052z M881.841,641.544
		c0.555,2.188,1.135,4.416,1.719,6.674c2.209,8.574,4.498,17.443,6.555,26.403c1.928,8.447,3.082,15.41,3.629,21.916
		c0.666,7.976-3.01,13.511-10.939,16.472c-12.973,4.84-28.229,10.03-44.004,9.115c-12.168-0.689-24.567-2.65-36.563-4.543
		l-1.84-0.303c-2.57-0.408-3.988-0.626-3.563-5.76c0.918-11.17,0.524-22.5,0.141-33.473c-0.095-2.721-0.197-5.443-0.268-8.158
		c-0.137-4.909-0.618-9.664-1.086-14.264c-0.057-0.59-0.119-1.168-0.176-1.751L881.841,641.544z M800.31,761h0.313
		c11.019,0,22.219,5.725,36.32,10.506c12.836,4.348,16.82,13.505,13.744,27.402c-2.094,9.46-5.885,19.735-9.553,28.843
		c-1.445,3.594-2.936,7.719-4.297,11.355c-0.053,0.105-0.168,0.454-0.285,0.588c-16.819,0.112-33.833,0.306-49.732,0.306h-19.151
		l0.358-2.211c0.848-5.387,1.703-10.845,2.645-16.31c0.953-5.535,1.949-11.058,2.943-16.6c1.038-5.74,2.072-14.899,3.053-20.66
		C778.735,772.199,788.012,761,800.31,761z M696.564,651.854c0.05-1.365,0.099-2.736,0.151-4.101l82.23,7.266
		c0.109,0.949,0.229,1.92,0.348,2.905c0.612,5.07,1.245,10.303,1.418,15.592c0.221,6.696,0.176,13.561,0.141,20.2
		c-0.032,5.036-0.064,10.255,0.018,15.403c0.094,5.711-2.132,9.354-6.608,10.846c-9.745,3.256-20.192,6.477-30.553,8.01
		c-7.308,1.098-13.997,1.625-20.471,1.625c-10.954,0-20.843-1.525-30.233-4.662c-2.943-0.985-5.875-2.209-8.98-3.51
		c-0.173-0.07-0.346-0.141-0.514-0.219C694.827,698.591,695.71,674.86,696.564,651.854z M542.812,675.339
		c5.701-16.563,9.112-34.639,10.406-55.17l126.805,25.397c0.2,19.032-0.391,38.902-6.767,58.068
		C667.949,719.572,662.414,722,652.019,722c-0.007,0-0.007,0-0.007,0c-2.577,0-5.626,0.063-9.587-0.359
		c-27.029-2.926-52.975-11.553-77.229-20.303c-6.447-2.313-12.446-7.229-18.248-12.039l-0.883-0.699
		C542.196,685.393,541.009,680.571,542.812,675.339z M553.218,732.231c4.945,0,9.225,0.303,13.075,0.9
		c24.448,3.84,47.718,10.5,69.18,19.799c21.688,9.41,24.466,14.172,21.263,36.475c-1.46,10.121-4.084,20.361-6.623,30.265
		c-1.072,4.171-2.141,8.341-3.123,12.491c-44.816-4.276-96.792-11.5-146.719-31.552c0.437-0.71,0.873-1.413,1.313-2.116
		c2.768-4.474,5.384-8.701,7.908-13.111c8.148-14.277,17.066-31.102,19.778-50.238c0.415-0.689,1.885-1.857,2.434-1.998
		c2.216-0.098,4.444-0.225,6.675-0.358C543.269,732.521,548.329,732.231,553.218,732.231z M390.276,579.187
		c0.137-3.981,0.271-7.969,0.397-11.965c4.417,1.646,8.784,3.292,13.128,4.924c13.74,5.177,26.727,10.072,40.195,14.461
		c27.289,8.904,55.219,17.287,82.234,25.404l8.904,2.672c1.322,0.401,1.701,0.654,1.698,0.619c0.024,0.078,0.123,0.443,0.06,1.428
		c-0.816,13.982-2.515,32.297-8.426,49.923c-1.41,4.214-3.133,7.934-5.117,11.077c-3.742,5.901-8.014,8.539-13.859,8.539l0,0
		c-1.867,0-3.952-0.274-6.199-0.822c-30.381-7.406-60.107-18.822-90.881-34.9c-16.064-8.404-23.341-22.852-22.891-45.491
		C389.686,596.438,389.988,587.668,390.276,579.187z M384.456,673.757c2.961-10.818,8.9-10.818,10.854-10.818
		c1.859,0,3.967,0.422,6.263,1.252c12.087,4.333,23.678,9.84,36.492,16.058c23.165,11.246,41.7,20.622,58.349,29.512
		c4.23,2.258,8.067,6.126,11.773,9.868l1.506,1.505c3.572,3.573,4.688,7.673,3.492,12.892
		c-4.348,18.977-17.644,46.639-28.746,60.262c-41.676-18.567-79.434-43.431-112.279-73.963c-1.678-1.561-1.85-1.982-0.795-5.021
		C376.854,699.54,381.011,686.346,384.456,673.757z M264.644,579.565c-7.529-14.622-15.452-30.574-24.943-50.197
		c-0.158-0.352-0.223-1.231-0.135-1.695c4.977-5.943,10.188-11.767,15.706-17.914c1.185-1.329,2.388-2.673,3.608-4.03
		c2.578,1.336,5.197,2.722,7.863,4.122c8.362,4.417,17.01,8.982,25.932,13.174c22.764,10.711,47.381,21.964,77.479,35.433
		c3.302,1.471,3.978,2.378,4.248,5.684c1.516,18.617,0.618,33.873-2.81,47.988c-1.893,7.793-3.816,8.566-8.074,8.566
		c-1.168,0-2.529-0.105-4.168-0.309c-18.758-2.343-36.517-10.347-52.188-17.415c-12.643-5.704-25.018-12.076-37.643-18.652
		C267.534,583.294,265.568,581.374,264.644,579.565z M293.727,621.983c7.765,0.359,15.101,0.683,22.264,2.146
		c10.631,2.167,21.248,5.753,30.704,10.388c6.52,3.193,13.342,8.455,19.725,15.199c4.86,5.128,4.291,12,1.805,21.41
		c-2.49,9.432-5.201,18.982-7.821,28.225c-0.696,2.455-1.39,4.909-2.082,7.357c-24.771-24.188-46.792-52.033-67.095-84.844
		C292.06,621.906,292.896,621.948,293.727,621.983z M1103.493,639.025c3.881-21.466,9.568-46.413,22.211-68.743
		c20.666-36.489,28.037-72.353,22.537-109.643c-2.725-18.47-5.979-34.836-18.289-48.186c-7.348-7.969-15.516-15.291-23.418-22.373
		l-3.189-2.87c-20.615-18.54-32.072-35.814-37.154-56.014c-0.664-2.666-1.301-5.324-1.938-8.004
		c-2.229-9.396-4.543-19.124-8.334-28.232c-14.176-34.063-40.932-58.988-81.791-76.22c-5.996-2.532-12.178-4.585-18.152-6.583
		c-9.707-3.235-18.867-6.288-27.609-11.239c-42.531-24.079-88.951-33.722-132.775-40.558c-30.269-4.723-61.387-8.422-92.503-11.003
		c-28.876-2.398-60.589-3.981-96.954-4.842c-5.627-0.13-11.461-0.197-17.834-0.197c-12.818,0-25.844,0.271-38.438,0.535
		c-8.165,0.165-16.327,0.334-24.489,0.436c-3.179,0.039-6.358,0.056-9.548,0.067c-7.448,0.035-15.15,0.067-22.756,0.433
		l-8.634,0.411c-25.753,1.217-52.384,2.479-78.552,4.333l-4.564,0.32c-17.232,1.199-35.055,2.444-52.233,6.024
		c-37.927,7.905-71.244,26.924-99.019,56.527c-18.403,19.616-33.332,43.445-46.979,74.997
		c-21.772,50.324-56.274,90.878-102.554,120.544c-33.922,21.747-50.921,52.603-50.527,91.715c0.148,15.107,1.383,28.485,3.781,40.92
		c6.129,31.819,19.805,55.964,41.813,73.808c2.139,1.744,4.371,3.39,6.527,4.986c4.318,3.2,8.395,6.218,11.77,9.833
		c28.841,30.861,49.318,62.568,62.611,96.905c0.936,2.427,1.85,4.853,2.76,7.279c4.787,12.737,9.731,25.918,18.228,37.587
		c14.942,20.537,32.399,38.668,51.882,53.917c3.583,2.8,7.156,5.626,10.732,8.44c18.99,14.98,38.627,30.453,59.436,43.486
		c60.705,38.022,126.312,69.939,200.584,97.581c97.099,36.116,195.938,60.282,293.754,71.804
		c23.133,2.721,46.824,4.648,67.721,6.351c9.207,0.753,18.072,1.572,26.453,2.318c0.115,0.014,0.234,0.125,0.357,0.125
		c0.092,0,0.193,0,0.289,0l18.482-1.447c11.648-0.844,21.639-1.616,31.623-2.348c25.465-1.878,48.463-6.765,70.318-14.847
		c42.633-15.782,68.66-42.334,79.58-81.15c8.098-28.787,8.418-59.38,0.967-90.91c-1.352-5.726-2.785-11.444-4.225-17.155
		c-5.686-22.668-11.572-46.115-11.885-69.896c-0.051-4.016-0.121-8.019-0.18-12.042c-0.32-19.813-0.654-40.31,0.713-60.264
		C1095.649,683.471,1099.593,660.562,1103.493,639.025z M1092.05,861.666c7.855,27.697,8.826,55.507,2.891,82.655
		c-7.828,35.766-29.871,60.494-67.391,75.637c-23.072,9.284-49.139,14.686-82.055,16.972c-11.137,0.767-22.785,1.161-34.625,1.161
		c-27.605,0-57.129-2.025-92.893-6.422c-54.045-6.625-109.242-17.316-168.748-32.684c-89.221-23.041-175.523-55.972-256.526-97.883
		c-60.982-31.553-110.438-65.727-151.214-104.488c-10.057-9.551-19.861-20.875-30.855-35.623c-5.154-6.907-9.6-15.502-13.584-26.242
		c-13.271-35.785-30.367-66.324-52.17-93.198c5.366,1.526,10.553,2.961,15.867,4.228c0.439,0.105,0.904,0.238,1.396,0.379
		c1.6,0.457,3.586,1.027,5.57,1.027c3.991,0,6.84-2.266,7.813-6.211c0.679-2.75,0.358-5.085-0.949-6.928
		c-2.103-2.975-5.739-3.326-8.397-3.594c-0.742-0.063-1.449-0.134-1.91-0.239c-31.313-7.125-53.555-19.37-70.01-38.536
		c-12.438-14.488-20.563-31.699-24.846-52.595c-5.229-25.531-5.316-46.055-0.277-64.602c6.66-24.504,22.359-43.037,47.996-56.667
		c18.761-9.966,40.571-16.95,66.665-21.332c5.173-0.872,10.536-1.47,15.72-2.04c4.839-0.542,9.843-1.098,14.777-1.871
		c2.753-0.443,4.554-2.511,5.999-4.171c0.422-0.478,0.837-0.971,1.272-1.364c0.975-0.9,1.453-2.202,1.277-3.524
		c-0.176-1.301-0.981-2.44-2.156-3.038c-0.464-0.247-1.033-0.626-1.635-1.02c-1.805-1.21-4.153-2.715-6.851-2.511
		c-19.919,1.533-39.105,4.656-57.192,9.305c27.571-26.86,49.016-58.855,65.513-97.708c25.39-59.818,65.354-97.046,122.173-113.81
		c15.343-4.522,32.064-7.033,52.623-7.881c16.051-0.665,32.332-1.6,48.08-2.504c11.232-0.644,22.457-1.291,33.686-1.846
		c16.567-0.819,30.374-1.452,44.666-1.487c6.836-0.014,13.673-0.042,20.509-0.067c11.669-0.046,23.333-0.091,35.001-0.091
		c25.131,0,44.479,0.211,62.742,0.682c28.175,0.731,57.564,2.613,87.343,5.595c48.886,4.892,106.052,12.6,160.47,32.564
		c-4.568-0.45-9.137-0.893-13.73-1.322c-4.104-0.387-8.426-0.781-12.691-0.457c-2.434,0.19-4.244,1.589-5.699,2.729
		c-0.416,0.324-0.83,0.647-1.25,0.914c-1.037,0.647-1.719,1.724-1.863,2.933c-0.148,1.203,0.26,2.413,1.104,3.292
		c0.377,0.387,0.732,0.872,1.102,1.357c1.354,1.78,3.045,3.995,5.891,4.347c4.643,0.57,9.336,0.872,13.873,1.161
		c3.799,0.239,7.723,0.492,11.531,0.9c33.486,3.58,72.035,9.143,105.705,29.948c33.098,20.439,51.961,48.333,57.684,85.251
		c2.834,18.301,11.689,35.645,26.322,51.555c9.313,10.128,18.811,19.074,28.225,26.586c16.826,13.448,26.08,31.889,29.111,58.067
		c3.67,31.762-3.205,62.66-21.023,94.472c-13.574,24.244-19.922,50.907-24.764,76.122c-7.646,39.844-11.422,75.475-11.547,108.911
		C1075.657,784.904,1080.972,822.589,1092.05,861.666z M1121.005,526.225c4.973-19.729,5.072-41.124,0.307-63.603
		c-6.871-32.389-25.324-55.42-54.836-66.744c-16.043-6.161-34.049-9.879-56.674-9.879h-1.111c-0.086,0-0.162,0.862-0.246,0.876
		c-2.213,0.141-4.424,0.713-6.633,0.847c-6.781,0.408-13.793,1.038-20.686,1.777c-2.877,0.295-4.402,2.826-5.525,4.598
		c-0.281,0.443-0.555,0.959-0.846,1.311c-0.715,0.879-1.027,2.035-0.859,3.16c0.162,1.118,0.791,2.128,1.73,2.769
		c0.355,0.231,0.699,0.54,1.045,0.828c1.24,1.041,2.947,2.468,5.246,2.693c3.203,0.33,6.643,0.267,11.145-0.232
		c19.434-2.194,38.535-0.845,56.689,3.987c29.121,7.758,47.484,25.179,54.578,51.779c4.494,16.88,5.25,34.886,2.232,53.517
		c-3.471,21.458-14.037,37.565-31.414,47.855c-5.123,3.031-10.764,5.19-16.738,7.455c-3.418,1.309-6.949,2.651-10.379,4.185
		c-2.105,0.936-3.551,2.616-4.719,3.96c-0.391,0.45-0.777,0.914-1.191,1.309c-0.953,0.936-1.383,2.271-1.15,3.586
		c0.229,1.316,1.094,2.428,2.307,2.976c0.531,0.239,1.055,0.549,1.594,0.858c1.652,0.949,3.709,2.131,6.139,2.131
		c0.064,0,0.293-0.014,0.352-0.014c3.736-0.176,7.34-1.414,10.516-2.497l0.453-0.169
		C1094.542,574.495,1113.735,555.097,1121.005,526.225z M227.599,441.677c5.655,0,11.623,0.534,18.227,1.631
		c18.049,2.989,35.709,8.939,55.271,15.839c26.65,9.39,53.127,17.822,84.077,17.822c0.707,0.014,1.413,0.021,2.12,0.021
		c24.494,0,45.837-6.633,63.434-19.715c7.84-5.816,14.602-13.047,21.143-20.031c1.77-1.892,3.531-3.784,5.314-5.626
		c2.021-2.11,1.951-4.994,1.895-7.301c-0.018-0.71-0.027-1.386,0.015-1.864c0.13-1.351-0.426-2.673-1.474-3.517
		c-1.052-0.851-2.458-1.125-3.745-0.718c-0.647,0.204-1.294,0.387-1.956,0.591c-1.765,0.528-3.594,1.069-5.422,1.808
		c-1.688,0.704-2.655,2.04-3.292,2.94c-0.116,0.155-0.231,0.316-0.349,0.458c-23.041,28.464-54.128,40.111-95.368,35.764
		c-23.744-2.504-46.297-10.43-63.289-17.056c-21.333-8.32-46.761-16.824-73.611-16.824c-2.395,0-4.808,0.07-7.174,0.197
		c-21.435,1.196-38.155,8.18-51.104,21.339c-16.211,16.486-24.979,37.79-27.588,67.035c-1.713,19.201,1.318,39.14,9.26,60.951
		c0.193,0.514,0.352,1.111,0.517,1.73c0.767,2.785,2.349,8.588,8.187,8.588c0.988,0,2.036-0.189,3.112-0.563
		c3.003-1.049,4.343-2.877,4.938-4.228c1.456-3.313-0.024-6.71-1.104-9.2c-0.242-0.555-0.481-1.097-0.654-1.589
		c-9.133-26.241-10.93-49.937-5.486-72.443c4.475-18.491,11.732-31.671,22.859-41.497
		C197.44,446.438,210.934,441.677,227.599,441.677z M640.097,261.764c-2.18-1.47-4.743-1.765-7.181-1.941
		c-17.306-1.28-34.622-2.077-51.927-3.315L567.675,256c-0.123,0-0.25,0-0.379,0c-39.381,0-71.421,4.658-100.834,12.803
		c-45,12.449-80.982,32.403-110.02,61.423l-0.436,0.317c-1.713,1.695-4.059,3.932-4.076,7.259c-0.007,1.372,0.415,3.418,2.465,5.472
		c1.639,1.646,3.475,2.469,5.447,2.469c3.236,0,5.473-2.236,7.104-3.875l0.637-0.626c20.449-19.658,44.029-35.09,70.088-45.865
		c39.646-16.388,83.102-24.011,129.23-22.689c14.373,0.422,29.009,1.343,43.156,2.229c6.91,0.436,13.814,0.865,20.725,1.245
		l1.033,0.07c2.216,0.141,4.432,0.162,6.176-0.26c2.162-0.528,6.186-3.031,6.175-6.689
		C644.163,266.512,642.457,263.347,640.097,261.764z M629.308,573.608c0.299,0,0.595-0.035,0.894-0.105
		c0.563-0.127,1.182-0.189,1.801-0.26c2.036-0.24,4.562-0.535,6.538-2.271c7.166-6.316,13.855-8.174,21.117-5.824
		c3.372,1.083,6.618,2.645,10.058,4.283c2.518,1.203,5.116,2.447,7.813,3.517c0.943,0.38,1.977,0.556,3.145,0.556
		c1.01,0,1.983-0.134,2.838-0.26c0.514-0.07,1.023-0.148,1.512-0.176c1.217-0.05,2.342-0.647,3.07-1.633
		c0.721-0.977,0.957-2.229,0.654-3.403c-0.134-0.507-0.201-1.097-0.281-1.688c-0.299-2.201-0.668-6.698-2.976-8.372
		C675.253,550.501,664.56,544,653.703,544c-0.158,0-0.327,0-0.485,0c-10.75,0-19.457,6.53-25.883,13.986
		c-1.885,2.18-1.916,5.909-1.944,8.215c-0.007,0.746-0.018,1.903-0.085,2.445c-0.164,1.294,0.316,2.812,1.291,3.691
		C627.349,573.019,628.316,573.608,629.308,573.608z M622.054,286.669c-1.425-1.52-3.584-3.819-6.84-3.819
		c-1.896,0-3.697,0.788-5.35,2.349c-5.193,4.867-1.748,9.861-0.273,11.978c0.214,0.316,0.432,0.626,0.639,0.942
		c1.446,2.229,2.958,4.438,4.467,6.653c4.648,6.815,9.045,13.251,11.785,20.313c2.75,7.068,4.304,14.552,5.949,22.479
		c0.896,4.297,1.822,8.742,2.951,13.082c0.646,2.497,2.527,4.086,4.04,5.359c0.443,0.387,0.897-1.467,1.273-1.073
		c0.749,0.802,1.794-0.932,2.884-0.932h0.031c1.087,0,2.117,1.762,2.877,0.989l3.787-2.734c0.907-0.922,1.318-1.669,1.104-2.95
		c-0.411-2.413-0.771-4.45-1.118-6.659c-0.732-4.67-1.428-8.924-2.392-13.284c-3.503-15.818-9.54-35.989-25.31-52.229
		L622.054,286.669z M290.516,313.579c0.527,0.014,1.108,0.113,1.685,0.197c0.904,0.133,1.931,0.281,2.961,0.281
		c1.667,0,3.024-0.394,4.153-1.21c3.714-2.701,7.229-5.676,10.631-8.56c1.966-1.667,3.935-3.341,5.939-4.951
		c45.829-36.869,91.715-62.294,140.28-77.732c31.847-10.121,61.492-15.038,90.628-15.038c10.177,0,20.383,0.633,30.339,1.864
		c35.887,4.459,73.568,6.724,111.991,6.724c4.536,0,9.087-0.035,13.634-0.091c19.071-0.253,38.424-1.083,57.136-1.878
		c8.641-0.366,17.284-0.731,25.767-1.041l1.875,0.014c1.666,0.021,3.33,0.042,4.996-0.035l0.387-0.014
		c2.287-0.091,5.75-0.239,7.854-2.87c0.879-1.097,1.805-3.024,1.256-6c-0.729-3.959-6.239-6.583-9.615-6.583
		c-7.719,0.063-15.54,0.295-23.104,0.513c-7.525,0.218-15.304,0.45-22.936,0.514c-5.866,0.049-11.725,0.105-17.583,0.162
		c-15.836,0.155-32.217,0.31-48.316,0.31c-11.977,0-22.707-0.091-32.811-0.26c-21.891-0.387-40.873-1.744-58.039-4.164
		c-15.378-2.167-30.377-3.264-44.598-3.264c-12.92,0-25.697,0.907-37.977,2.687c-32.347,4.698-65.4,14.545-98.225,29.273
		c-40.336,18.083-79.363,43.656-119.331,78.162c-2.063,1.779-2.353,4.48-2.563,6.449c-0.057,0.556-0.109,1.111-0.222,1.604
		c-0.271,1.174-0.003,2.412,0.735,3.369S289.31,313.543,290.516,313.579z M152.884,596.706c-0.573-0.232-1.133-0.465-1.594-0.703
		c-22.352-12.252-35.355-31.848-38.65-58.229c-2.114-16.964-0.546-35.258,4.799-55.922c7.537-29.125,24.723-48.861,51.08-58.658
		c15.066-5.605,31.021-7.258,43.23-7.258c1.154,0,2.311-0.935,3.461-0.935h0.514c2.879,0,6.104,0.612,8.211-1.878
		c0.957-1.14,1.99-3.059,1.456-6.168c-0.687-4.044-6.478-6.954-9.896-6.954h-0.25c-1.893,0-3.787,0.487-5.684,0.544
		c-9.604,0.295-19.538,0.771-29.205,2.502c-34.619,6.217-58.827,25.002-71.959,55.66c-8.109,18.934-12.027,39.776-12.701,67.474
		c-0.008,0.148,0,0.339,0.018,0.494c0.084,0.971,0.179,2.139,0.284,3.44c0.271,3.503,0.615,7.885,1.182,12.302
		c3.899,30.497,19.454,53.172,46.244,67.395c0.397,0.211,0.813,0.457,1.234,0.689c2.001,1.152,4.491,2.602,7.244,2.602
		c1.681,0,4.812-0.584,6.911-4.424c1.217-2.236,1.483-4.402,0.78-6.394C158.433,599.006,155.226,597.677,152.884,596.706z
		 M334.643,393.414c2.486-0.809,5.05-1.639,7.554-2.813c2.441-1.146,3.545-3.489,4.436-5.388c0.249-0.521,0.488-1.062,0.77-1.512
		c0.623-1.013,0.767-2.236,0.397-3.369c-0.366-1.125-1.21-2.033-2.304-2.476c-0.443-0.183-0.904-0.45-1.382-0.71
		c-1.46-0.816-3.112-1.73-5.036-1.73c-0.664,0-1.305,0.105-1.906,0.324c-8.422,3.087-15.977,5.957-23.178,9.839
		c-3.011,1.618-5.012,4.283-7.132,7.097c-0.907,1.196-1.843,2.448-2.884,3.636c-1.318,1.505-1.333,3.742-0.039,5.268
		c1.023,1.203,1.945,2.448,2.824,3.657c2.092,2.849,4.065,5.535,7.064,7.202c7.171,3.974,14.841,6.851,22.085,9.446
		c0.88,0.31,1.896,0.479,3.028,0.479c0.643,0,6.372-0.106,8.31-3.826c1.399-2.687,1.044-4.875,0.499-6.232
		c-1.255-3.144-4.477-4.564-6.787-5.352c-1.195-0.415-2.401-0.795-3.607-1.189c-3.348-1.076-6.52-2.096-9.407-3.531
		c-1.48-0.738-2.912-1.871-4.39-3.123c1.39-1.266,2.732-2.405,4.119-3.088C329.804,394.983,332.157,394.216,334.643,393.414z"/>
</g>


</svg>